<?xml version="1.0" encoding="iso-8859-1"?>
<!-- Generator: Adobe Illustrator 17.1.0, SVG Export Plug-In . SVG Version: 6.00 Build 0)  -->
<!DOCTYPE svg PUBLIC "-//W3C//DTD SVG 1.1//EN" "http://www.w3.org/Graphics/SVG/1.1/DTD/svg11.dtd">
<svg version="1.1" id="Capa_1" xmlns="http://www.w3.org/2000/svg" xmlns:xlink="http://www.w3.org/1999/xlink" x="0px" y="0px"
	 viewBox="0 0 511 511" style="enable-background:new 0 0 511 511;" xml:space="preserve">
<g>

    <linearGradient id="grad1" x1="0%" y1="0%" x2="100%" y2="0%">
      <stop offset="0%" style="stop-color:rgb(255,255,0);stop-opacity:1" />
      <stop offset="100%" style="stop-color:rgb(255,0,0);stop-opacity:1" />
    </linearGradient>
  
	<path d="M343.5,144h-28.396l-24.944-31.18c-2.935-3.669-6.817-6.305-11.16-7.694V103.5c0-10.336-6.71-19.128-16-22.266V7.5
		c0-4.142-3.358-7.5-7.5-7.5S248,3.358,248,7.5v73.734c-9.29,3.138-16,11.93-16,22.266v1.625c-4.343,1.389-8.226,4.026-11.16,7.694
		L195.896,144H167.5C110.43,144,64,190.43,64,247.5v160C64,464.57,110.43,511,167.5,511h176c57.07,0,103.5-46.43,103.5-103.5v-160
		C447,190.43,400.57,144,343.5,144z M255.5,95c4.687,0,8.5,3.813,8.5,8.5v0.5h-17v-0.5C247,98.813,250.813,95,255.5,95z
		 M232.553,122.19c1.622-2.027,4.041-3.19,6.637-3.19h32.62c2.596,0,5.015,1.163,6.637,3.19l25.25,31.563
		c-0.99,3.597-4.29,6.248-8.197,6.248h-80c-3.907,0-7.208-2.65-8.197-6.248L232.553,122.19z M432,407.5
		c0,48.799-39.701,88.5-88.5,88.5h-176c-48.799,0-88.5-39.701-88.5-88.5v-160c0-48.799,39.701-88.5,88.5-88.5h25.734
		c3.138,9.29,11.93,16,22.266,16h80c10.336,0,19.128-6.71,22.266-16H343.5c48.799,0,88.5,39.701,88.5,88.5V407.5z"/>
	<path d="M167.5,224c-30.603,0-55.5,24.897-55.5,55.5s24.897,55.5,55.5,55.5s55.5-24.897,55.5-55.5S198.103,224,167.5,224z
		 M167.5,320c-22.332,0-40.5-18.168-40.5-40.5s18.168-40.5,40.5-40.5s40.5,18.168,40.5,40.5S189.832,320,167.5,320z"/>
	<path d="M343.5,224c-30.603,0-55.5,24.897-55.5,55.5s24.897,55.5,55.5,55.5s55.5-24.897,55.5-55.5S374.103,224,343.5,224z
		 M343.5,320c-22.332,0-40.5-18.168-40.5-40.5s18.168-40.5,40.5-40.5s40.5,18.168,40.5,40.5S365.832,320,343.5,320z"/>
	<path d="M183.5,272c-4.142,0-7.5,3.358-7.5,7.5c0,4.687-3.813,8.5-8.5,8.5s-8.5-3.813-8.5-8.5s3.813-8.5,8.5-8.5
		c4.142,0,7.5-3.358,7.5-7.5s-3.358-7.5-7.5-7.5c-12.958,0-23.5,10.542-23.5,23.5s10.542,23.5,23.5,23.5s23.5-10.542,23.5-23.5
		C191,275.358,187.642,272,183.5,272z"/>
	<path d="M359.5,272c-4.142,0-7.5,3.358-7.5,7.5c0,4.687-3.813,8.5-8.5,8.5s-8.5-3.813-8.5-8.5s3.813-8.5,8.5-8.5
		c4.142,0,7.5-3.358,7.5-7.5s-3.358-7.5-7.5-7.5c-12.958,0-23.5,10.542-23.5,23.5s10.542,23.5,23.5,23.5s23.5-10.542,23.5-23.5
		C367,275.358,363.642,272,359.5,272z"/>
	<path d="M255.5,296c-4.142,0-7.5,3.358-7.5,7.5v8c0,4.142,3.358,7.5,7.5,7.5s7.5-3.358,7.5-7.5v-8
		C263,299.358,259.642,296,255.5,296z"/>
	<path d="M255.5,328c-4.142,0-7.5,3.358-7.5,7.5v8c0,4.142,3.358,7.5,7.5,7.5s7.5-3.358,7.5-7.5v-8
		C263,331.358,259.642,328,255.5,328z"/>
	<path d="M127.5,215c1.97,0,3.91-0.8,5.3-2.2c1.4-1.39,2.2-3.33,2.2-5.3c0-1.97-0.8-3.91-2.2-5.3c-1.39-1.4-3.33-2.2-5.3-2.2
		c-1.97,0-3.91,0.8-5.3,2.2c-1.4,1.39-2.2,3.33-2.2,5.3c0,1.97,0.8,3.91,2.2,5.3C123.59,214.2,125.53,215,127.5,215z"/>
	<path d="M383.5,215c1.97,0,3.91-0.8,5.3-2.2c1.4-1.39,2.2-3.33,2.2-5.3c0-1.97-0.8-3.91-2.2-5.3c-1.39-1.4-3.33-2.2-5.3-2.2
		c-1.97,0-3.91,0.8-5.3,2.2c-1.4,1.39-2.2,3.33-2.2,5.3c0,1.97,0.8,3.91,2.2,5.3C379.59,214.2,381.53,215,383.5,215z"/>
	<path d="M183.5,376h-32c-12.958,0-23.5,10.542-23.5,23.5s10.542,23.5,23.5,23.5h32c12.958,0,23.5-10.542,23.5-23.5
		S196.458,376,183.5,376z M143,399.5c0-4.687,3.813-8.5,8.5-8.5h8.5v17h-8.5C146.813,408,143,404.187,143,399.5z M183.5,408H175v-17
		h8.5c4.687,0,8.5,3.813,8.5,8.5S188.187,408,183.5,408z"/>
</g>
<g>
</g>
<g>
</g>
<g>
</g>
<g>
</g>
<g>
</g>
<g>
</g>
<g>
</g>
<g>
</g>
<g>
</g>
<g>
</g>
<g>
</g>
<g>
</g>
<g>
</g>
<g>
</g>
<g>
</g>
</svg>
