<?xml version="1.0" encoding="iso-8859-1"?>
<!-- Generator: Adobe Illustrator 17.1.0, SVG Export Plug-In . SVG Version: 6.00 Build 0)  -->
<!DOCTYPE svg PUBLIC "-//W3C//DTD SVG 1.1//EN" "http://www.w3.org/Graphics/SVG/1.1/DTD/svg11.dtd">
<svg xmlns="http://www.w3.org/2000/svg" xmlns:xlink="http://www.w3.org/1999/xlink" version="1.1" id="Capa_1" x="0px" y="0px" viewBox="0 0 511 511" style="enable-background:new 0 0 511 511;" xml:space="preserve" width="512px" height="512px">
<g>
	<path d="M503.5,160H439v-0.5c0-12.958-10.542-23.5-23.5-23.5S392,146.542,392,159.5v0.5h-64.5c-4.142,0-7.5,3.358-7.5,7.5   s3.358,7.5,7.5,7.5H384v8.5c0,0.168,0.01,0.333,0.013,0.5h-48.357c-0.007,0-0.014,0-0.021,0H175.378c-0.013,0-0.026,0-0.039,0   h-48.352c0.003-0.167,0.013-0.332,0.013-0.5V175h56.5c4.142,0,7.5-3.358,7.5-7.5s-3.358-7.5-7.5-7.5H119v-0.5   c0-12.958-10.542-23.5-23.5-23.5S72,146.542,72,159.5v0.5H7.5c-4.142,0-7.5,3.358-7.5,7.5s3.358,7.5,7.5,7.5H64v8.5   c0,17.369,14.131,31.5,31.5,31.5c11.737,0,21.987-6.457,27.406-16h47.188l6.997,20.991C182.476,236.146,197.536,247,214.564,247   H248v17h-40.5c-17.369,0-31.5,14.131-31.5,31.5v48c0,17.369,14.131,31.5,31.5,31.5h96c17.369,0,31.5-14.131,31.5-31.5v-48   c0-17.369-14.131-31.5-31.5-31.5H263v-17h33.436c17.029,0,32.088-10.854,37.473-27.009L340.906,199h47.188   c5.419,9.543,15.669,16,27.406,16c17.369,0,31.5-14.131,31.5-31.5V175h56.5c4.142,0,7.5-3.358,7.5-7.5S507.642,160,503.5,160z    M87,159.5c0-4.687,3.813-8.5,8.5-8.5s8.5,3.813,8.5,8.5v0.5H87V159.5z M95.5,200c-9.098,0-16.5-7.402-16.5-16.5V175h33v8.5   C112,192.598,104.598,200,95.5,200z M320,295.5v48c0,9.098-7.402,16.5-16.5,16.5h-96c-9.098,0-16.5-7.402-16.5-16.5v-48   c0-9.098,7.402-16.5,16.5-16.5h96C312.598,279,320,286.402,320,295.5z M319.678,215.248c-3.34,10.02-12.68,16.752-23.243,16.752   h-81.871c-10.563,0-19.903-6.732-23.243-16.752L185.906,199h139.188L319.678,215.248z M407,159.5c0-4.687,3.813-8.5,8.5-8.5   s8.5,3.813,8.5,8.5v0.5h-17V159.5z M432,183.5c0,9.098-7.402,16.5-16.5,16.5s-16.5-7.402-16.5-16.5V175h33V183.5z" fill="#cf5a40"/>
	<path d="M231.5,288c-17.369,0-31.5,14.131-31.5,31.5s14.131,31.5,31.5,31.5s31.5-14.131,31.5-31.5S248.869,288,231.5,288z    M231.5,336c-9.098,0-16.5-7.402-16.5-16.5s7.402-16.5,16.5-16.5s16.5,7.402,16.5,16.5S240.598,336,231.5,336z" fill="#cf5a40"/>
	<path d="M287.5,303h8c4.142,0,7.5-3.358,7.5-7.5s-3.358-7.5-7.5-7.5h-8c-4.142,0-7.5,3.358-7.5,7.5S283.358,303,287.5,303z" fill="#cf5a40"/>
	<path d="M231.5,312c-1.97,0-3.91,0.8-5.3,2.2c-1.4,1.39-2.2,3.33-2.2,5.3s0.8,3.91,2.2,5.3c1.39,1.4,3.33,2.2,5.3,2.2   c1.97,0,3.91-0.8,5.3-2.2c1.4-1.39,2.2-3.33,2.2-5.3s-0.8-3.91-2.2-5.3C235.41,312.8,233.47,312,231.5,312z" fill="#cf5a40"/>
</g>
<g>
</g>
<g>
</g>
<g>
</g>
<g>
</g>
<g>
</g>
<g>
</g>
<g>
</g>
<g>
</g>
<g>
</g>
<g>
</g>
<g>
</g>
<g>
</g>
<g>
</g>
<g>
</g>
<g>
</g>
</svg>
