<?xml version="1.0" encoding="iso-8859-1"?>
<!-- Generator: Adobe Illustrator 17.1.0, SVG Export Plug-In . SVG Version: 6.00 Build 0)  -->
<!DOCTYPE svg PUBLIC "-//W3C//DTD SVG 1.1//EN" "http://www.w3.org/Graphics/SVG/1.1/DTD/svg11.dtd">
<svg version="1.1" id="Capa_1" xmlns="http://www.w3.org/2000/svg" xmlns:xlink="http://www.w3.org/1999/xlink" x="0px" y="0px"
	 viewBox="0 0 511 511" style="enable-background:new 0 0 511 511;" xml:space="preserve">
<g>
	<path d="M436.166,74.834C387.908,26.577,323.747,0,255.5,0S123.092,26.577,74.834,74.834C26.577,123.092,0,187.253,0,255.5
		s26.577,132.408,74.834,180.666C123.092,484.423,187.253,511,255.5,511s132.408-26.577,180.666-74.834
		C484.423,387.908,511,323.747,511,255.5S484.423,123.092,436.166,74.834z M425.559,425.559C380.135,470.984,319.74,496,255.5,496
		s-124.635-25.016-170.059-70.441C40.016,380.135,15,319.74,15,255.5S40.016,130.865,85.441,85.441
		C130.865,40.016,191.26,15,255.5,15s124.635,25.016,170.059,70.441C470.984,130.865,496,191.26,496,255.5
		S470.984,380.135,425.559,425.559z"/>
	<path d="M415.276,104.461c-6.267-4.941-14.912-4.431-20.556,1.212L278.551,221.842c-0.051,0.049-0.101,0.1-0.151,0.15l-6.573,6.573
		c-12.115-7.343-28.147-5.794-38.602,4.66c-10.455,10.454-12.004,26.487-4.66,38.602l-3.815,3.815l-41.687-8.337
		c-9.619-1.923-19.521,2.403-24.645,10.764L92.104,386.267c-4.17,6.805-2.648,15.33,3.619,20.271c2.879,2.27,6.26,3.39,9.622,3.39
		c3.955,0,7.884-1.551,10.935-4.602l116.169-116.169c0.051-0.049,0.101-0.1,0.151-0.15l6.573-6.573
		c4.999,3.03,10.662,4.551,16.328,4.551c8.066,0,16.133-3.07,22.274-9.211c10.455-10.454,12.004-26.487,4.66-38.602l3.815-3.815
		l41.687,8.337c9.617,1.921,19.521-2.403,24.645-10.764l66.315-108.198C423.066,117.928,421.544,109.403,415.276,104.461z
		 M105.673,394.72c-0.163,0.163-0.274,0.227-0.263,0.231c-0.214-0.003-0.627-0.329-0.677-0.495c0.004-0.031,0.04-0.154,0.161-0.351
		l66.315-108.198c1.56-2.545,4.345-4.057,7.262-4.057c0.548,0,1.102,0.053,1.652,0.164l31.881,6.376L105.673,394.72z
		 M267.167,267.167c-6.434,6.434-16.901,6.434-23.335,0c-6.433-6.434-6.433-16.901,0-23.335c3.217-3.217,7.442-4.825,11.667-4.825
		s8.451,1.608,11.667,4.825C273.601,250.266,273.601,260.734,267.167,267.167z M406.106,116.895l-66.315,108.198
		c-1.854,3.024-5.434,4.588-8.914,3.893l-31.881-6.376l106.33-106.33c0.163-0.163,0.274-0.227,0.263-0.231
		c0.214,0.003,0.627,0.329,0.677,0.495C406.263,116.575,406.227,116.698,406.106,116.895z"/>
	<path d="M255.5,248c-1.97,0-3.91,0.8-5.3,2.2c-1.4,1.39-2.2,3.33-2.2,5.3c0,1.97,0.8,3.91,2.2,5.3c1.39,1.4,3.33,2.2,5.3,2.2
		c1.97,0,3.91-0.8,5.3-2.2c1.4-1.39,2.2-3.33,2.2-5.3c0-1.97-0.8-3.91-2.2-5.3C259.41,248.8,257.47,248,255.5,248z"/>
</g>
<g>
</g>
<g>
</g>
<g>
</g>
<g>
</g>
<g>
</g>
<g>
</g>
<g>
</g>
<g>
</g>
<g>
</g>
<g>
</g>
<g>
</g>
<g>
</g>
<g>
</g>
<g>
</g>
<g>
</g>
</svg>
